# xmcd
#
# Track frame offsets:
#	150
#	13847
#	25937
#	39375
#	52080
#	65067
#	76987
#	86450
#	98630
#	108250
#	121612
#	131400
#	143037
#	156010
#	166622
#	181962
#	192692
#	207085
#	217290
#	230302
#	243905
#	255484
#
# Disc length: 3532 seconds
#
# Revision: 0
# Processed by: cddbd v1.5.2PL0 Copyright (c) Steve Scherf et al.
# Submitted via: dBpowerAMP V4.0
#
DISCID=240dca16
DTITLE=Chayito Valdez - 22 Grandes Exitos para Adoloridos
DYEAR=2006
DGENRE=rachera
TTITLE0=LA SOPA DEL BEBE
TTITLE1=EL COMPADRITO
TTITLE2=TRES VECES TE ENGAÑE
TTITLE3=CHEQUE AL PORTADOR
TTITLE4=GAVIOTA AVENTURERA
TTITLE5=ME VOLVI COBARDE
TTITLE6=TRAGOS AMARGOS
TTITLE7=SE ESTA CALLENDO EL JACAL
TTITLE8=EL QUE ENAMORA CASADAS
TTITLE9=LA JOVEN MANCORDADORA
TTITLE10=SON HABLADAS
TTITLE11=UN DIA NUBLADO
TTITLE12=DOS HOJAS SIN RUMBO
TTITLE13=NECESITO VERTE
TTITLE14=CELOS DE TI
TTITLE15=EL CHUBASCO
TTITLE16=MI DESTINO FUE QUERERTE
TTITLE17=ME VOY,ME VOY
TTITLE18=CELOSA
TTITLE19=RONDANDO EL NIDO
TTITLE20=PRENDA QUERIDA
TTITLE21=ESPEJITO
EXTD=22 Exitos para Adoloridos en la musica norteña CHAYITO VALDEZ\n hacido una fiel exponente
EXTT0=
EXTT1=
EXTT2=
EXTT3=
EXTT4=
EXTT5=
EXTT6=
EXTT7=
EXTT8=
EXTT9=
EXTT10=
EXTT11=
EXTT12=
EXTT13=
EXTT14=
EXTT15=
EXTT16=
EXTT17=
EXTT18=
EXTT19=
EXTT20=
EXTT21=
PLAYORDER=
